<?xml version="1.0" encoding="utf-8"?>
<!-- Generator: Adobe Illustrator 21.0.2, SVG Export Plug-In . SVG Version: 6.00 Build 0)  -->
<!DOCTYPE svg PUBLIC "-//W3C//DTD SVG 1.1//EN" "http://www.w3.org/Graphics/SVG/1.1/DTD/svg11.dtd">
<svg version="1.1" id="Layer_1" xmlns="http://www.w3.org/2000/svg" xmlns:xlink="http://www.w3.org/1999/xlink" x="0px" y="0px"
	 viewBox="0 0 100 25.8" style="enable-background:new 0 0 100 25.8;" xml:space="preserve">
<style type="text/css">
	.st0{fill:#FFFFFF;}
</style>
<g>
	<g>
		<path class="st0" d="M23.6,11.7c0-0.3-0.4-0.6-0.7-0.6c-1,0-2-0.6-2.3-1.6c-0.4-1-0.1-2.1,0.6-2.8c0.2-0.2,0.3-0.6,0.1-0.9
			c-0.5-0.7-1.1-1.3-1.8-1.8c-0.3-0.2-0.6-0.2-0.9,0.1c-0.7,0.7-1.9,1-2.8,0.6c-1-0.4-1.6-1.4-1.5-2.5c0-0.3-0.2-0.6-0.6-0.7
			c-0.8-0.1-1.7-0.1-2.6,0c-0.3,0-0.6,0.3-0.6,0.6c0,1.1-0.6,2-1.6,2.4C8.1,5.2,6.9,4.9,6.2,4.1C6,3.9,5.6,3.9,5.3,4.1
			C4.7,4.6,4,5.2,3.5,5.9C3.3,6.1,3.3,6.5,3.6,6.7c0.8,0.7,1,1.9,0.6,2.8c-0.4,0.9-1.4,1.5-2.5,1.5c-0.4,0-0.6,0.2-0.7,0.6
			c-0.1,0.9-0.1,1.7,0,2.6c0,0.3,0.4,0.6,0.7,0.6c1,0,1.9,0.6,2.3,1.6c0.4,1,0.1,2.1-0.6,2.8c-0.2,0.2-0.3,0.6-0.1,0.9
			c0.5,0.7,1.1,1.3,1.8,1.8C5.5,22,5.9,22,6.1,21.7c0.7-0.7,1.9-1,2.8-0.6c1,0.4,1.6,1.4,1.5,2.5c0,0.3,0.2,0.6,0.6,0.7
			c0.4,0.1,0.9,0.1,1.3,0.1c0.4,0,0.8,0,1.2-0.1c0.3,0,0.6-0.3,0.6-0.6c0-1.1,0.6-2,1.6-2.4c0.9-0.4,2.1-0.1,2.8,0.6
			c0.2,0.2,0.6,0.3,0.9,0.1c0.7-0.5,1.3-1.1,1.8-1.8c0.2-0.3,0.2-0.6-0.1-0.9c-0.8-0.7-1-1.9-0.6-2.8c0.4-0.9,1.3-1.5,2.3-1.5l0.1,0
			c0.3,0,0.6-0.2,0.7-0.6C23.7,13.4,23.7,12.6,23.6,11.7L23.6,11.7z M12.4,19.5c-3.6,0-6.5-2.9-6.5-6.5c0-3.6,2.9-6.5,6.5-6.5
			s6.5,2.9,6.5,6.5c0,1.2-0.3,2.4-0.9,3.4l-2.9-2.9c0.2-0.5,0.3-1,0.3-1.6c0-1.1-0.4-2.1-1.2-2.8c-0.8-0.8-1.8-1.2-2.8-1.2
			c-0.4,0-0.7,0-1.1,0.1c-0.2,0-0.3,0.2-0.3,0.3c0,0.2,0,0.3,0.1,0.4c0,0,1.4,1.4,1.9,1.9c0,0,0,0.2,0,0.2l0,0
			c0,0.5-0.1,1.1-0.2,1.4c0,0,0,0,0,0c0,0,0,0,0,0c-0.2,0.1-0.9,0.2-1.4,0.2l0,0l0,0c0,0,0,0,0,0c-0.1,0-0.1,0-0.2-0.1
			c-0.5-0.5-1.8-1.8-1.8-1.8c-0.1-0.1-0.2-0.1-0.3-0.1c-0.2,0-0.4,0.1-0.4,0.3c-0.4,1.4,0,2.9,1,3.9c0.8,0.8,1.8,1.2,2.8,1.2
			c0.5,0,1.1-0.1,1.6-0.3l2.9,2.9C14.9,19.1,13.6,19.5,12.4,19.5L12.4,19.5z M12.4,19.5"/>
	</g>
</g>
<g>
	<path class="st0" d="M34.1,1.6V7h3.5c4.3,0,6.2,1.6,6.2,5.5v9.4h-4v-9c0-2-0.6-2.6-2.6-2.6h-3.1v11.6h-3.9V1.6H34.1z"/>
	<path class="st0" d="M54.2,7c4.1,0,6.1,1.9,6.1,5.6v9.3H49.8c-3,0-4.6-1.6-4.6-4.3c0-3.5,1.8-4.8,5.9-4.8h5.2c0-0.1,0-0.3,0-0.4
		c0-1.9-1.1-2.4-3.6-2.4h-6.6V7H54.2z M56.3,18.9v-3.1h-4.6c-1.7,0-2.4,0.3-2.4,1.7c0,1.2,0.7,1.4,2.1,1.4H56.3z"/>
	<path class="st0" d="M69.9,7c4.4,0,6.2,1.5,6.2,5.5v9.4h-3.9v-9c0-2.1-0.4-2.7-2.6-2.7h-3.2v11.6h-3.9V7H69.9z"/>
	<path class="st0" d="M84.3,21.9c-4.6,0-7.3-2.9-7.3-7.6c0-2,0.5-3.6,1.6-5C80,7.5,81.8,7,84.5,7h3.4V1.6h3.9v20.3H84.3z M87.9,10.2
		h-2.4c-3.1,0-4.4,1.1-4.4,4.3c0,3.1,1.2,4.2,4.1,4.2h2.7V10.2z"/>
	<path class="st0" d="M93.9,5.3V1.6H98v3.7H93.9z M93.9,21.9V7H98v14.9H93.9z"/>
</g>
</svg>
